<?xml version="1.0" standalone="no"?>
<!DOCTYPE svg PUBLIC "-//W3C//DTD SVG 20010904//EN"
 "http://www.w3.org/TR/2001/REC-SVG-20010904/DTD/svg10.dtd">
<svg version="1.0" xmlns="http://www.w3.org/2000/svg"
 width="225.000000pt" height="225.000000pt" viewBox="0 0 225.000000 225.000000"
 preserveAspectRatio="xMidYMid meet">

<g transform="translate(0.000000,225.000000) scale(0.100000,-0.100000)"
fill="#000000" stroke="none">
<path d="M971 1739 c-87 -15 -231 -67 -306 -111 -39 -23 -105 -77 -150 -122
-120 -121 -163 -229 -116 -287 l19 -24 707 0 707 0 19 24 c47 58 4 166 -116
287 -45 45 -111 99 -150 122 -79 47 -219 96 -315 111 -76 13 -223 12 -299 0z
m249 -49 c267 -33 489 -171 581 -361 41 -86 97 -79 -676 -79 -773 0 -717 -7
-676 79 90 185 314 327 566 360 99 12 111 12 205 1z"/>
<path d="M961 1578 c-26 -27 -19 -38 24 -38 39 0 63 28 43 48 -18 18 -45 14
-67 -10z"/>
<path d="M1232 1591 c-8 -4 -12 -19 -10 -32 2 -20 10 -25 41 -27 36 -3 38 -2
32 20 -7 21 -31 48 -44 48 -3 0 -12 -4 -19 -9z"/>
<path d="M779 1529 c-25 -25 -20 -43 13 -47 35 -4 61 23 48 49 -14 25 -35 24
-61 -2z"/>
<path d="M1402 1484 c-25 -17 -21 -31 14 -44 42 -16 78 16 53 46 -15 18 -39
18 -67 -2z"/>
<path d="M1101 1476 c-14 -17 -7 -48 14 -66 20 -16 53 35 38 59 -14 22 -37 25
-52 7z"/>
<path d="M1577 1433 c-9 -8 -9 -46 -1 -67 5 -12 10 -13 25 -6 29 16 43 48 28
66 -12 15 -41 19 -52 7z"/>
<path d="M631 1411 c-30 -30 -27 -51 8 -51 36 0 59 25 45 48 -16 24 -31 25
-53 3z"/>
<path d="M887 1382 c-26 -29 -20 -42 18 -42 35 0 57 22 48 48 -7 18 -48 15
-66 -6z"/>
<path d="M1277 1394 c-12 -12 -8 -61 6 -73 19 -15 50 19 45 51 -3 23 -36 37
-51 22z"/>
<path d="M600 1133 c-14 -2 -52 -13 -85 -23 -33 -11 -76 -20 -95 -22 -25 -2
-36 -8 -38 -22 -8 -41 47 -42 157 -5 71 25 144 24 217 -2 39 -14 83 -22 129
-22 46 0 90 8 129 22 33 11 82 21 111 21 29 0 78 -10 111 -21 39 -14 83 -22
129 -22 46 0 90 8 129 22 73 26 146 27 217 2 110 -37 165 -36 157 5 -2 14 -13
20 -38 22 -19 2 -64 13 -100 24 -83 28 -174 27 -254 -1 -75 -27 -147 -27 -222
0 -39 14 -83 21 -129 21 -46 0 -90 -7 -129 -21 -73 -26 -146 -27 -217 -2 -60
20 -140 31 -179 24z"/>
<path d="M402 964 c-17 -11 -22 -25 -22 -58 0 -23 5 -47 12 -54 9 -9 114 -12
413 -12 l401 0 34 -30 35 -29 -431 -1 c-343 0 -434 -3 -448 -13 -16 -11 -18
-24 -14 -71 6 -75 45 -130 117 -168 l53 -28 573 0 573 0 53 28 c72 38 111 93
117 168 7 81 1 84 -172 84 l-140 0 29 30 c29 30 29 30 145 30 77 0 120 4 128
12 7 7 12 31 12 54 0 78 45 74 -745 74 -618 0 -703 -2 -723 -16z m1142 -116
c-87 -83 -117 -102 -147 -94 -12 4 -60 42 -107 86 l-85 79 208 1 207 0 -76
-72z m-194 -133 c33 -19 101 -19 126 0 24 18 328 22 339 4 12 -18 -25 -97 -56
-123 -16 -14 -46 -30 -67 -36 -50 -14 -1084 -14 -1134 0 -21 6 -51 22 -67 36
-31 26 -68 105 -56 123 4 8 143 11 448 11 364 -1 446 -3 467 -15z"/>
</g>
</svg>
