<?xml version="1.0" standalone="no"?>
<!DOCTYPE svg PUBLIC "-//W3C//DTD SVG 20010904//EN"
 "http://www.w3.org/TR/2001/REC-SVG-20010904/DTD/svg10.dtd">
<svg version="1.0" xmlns="http://www.w3.org/2000/svg"
 width="225.000000pt" height="225.000000pt" viewBox="0 0 225.000000 225.000000"
 preserveAspectRatio="xMidYMid meet">

<g transform="translate(0.000000,225.000000) scale(0.100000,-0.100000)"
fill="#000000" stroke="none">
<path d="M1465 2241 c-49 -13 -90 -38 -124 -76 -49 -56 -44 -66 72 -129 42
-24 65 -42 60 -49 -4 -7 -31 -47 -61 -90 l-54 -77 -210 2 -210 3 -58 150 -58
150 -171 3 -171 2 0 -34 0 -35 147 -3 147 -3 43 -110 c23 -60 42 -113 43 -117
0 -4 -51 -9 -112 -10 l-113 -3 1 -35 c0 -19 8 -71 18 -115 31 -137 27 -282
-14 -460 -59 -258 -46 -371 57 -500 80 -98 202 -167 336 -190 l37 -6 0 -219 0
-220 -90 0 c-75 0 -91 -3 -99 -18 -6 -11 -6 -24 0 -35 9 -15 32 -17 223 -17
183 0 215 2 227 16 9 11 10 20 2 32 -8 14 -29 18 -102 20 l-91 3 0 219 0 219
48 7 c159 23 325 143 390 281 24 53 27 69 27 178 0 102 -5 140 -34 259 -32
132 -33 146 -28 270 3 87 12 158 26 210 26 98 21 106 -60 106 -33 0 -59 3 -59
6 0 3 21 34 46 70 l46 64 29 -15 c16 -9 52 -29 79 -45 28 -17 58 -30 66 -30 8
0 24 21 36 47 30 68 22 169 -18 225 -55 77 -179 123 -269 99z m166 -95 c23
-16 47 -42 55 -61 14 -35 20 -125 7 -125 -4 0 -71 37 -150 82 -135 78 -142 83
-126 100 41 45 148 47 214 4z m-640 -651 l97 -250 -181 -3 c-99 -1 -181 -1
-182 0 -2 2 4 39 12 83 17 91 11 238 -12 350 -8 38 -15 71 -15 73 0 1 41 1 92
0 l92 -3 97 -250z m509 243 c0 -7 -7 -48 -15 -91 -19 -98 -19 -273 -1 -349
l13 -58 -166 0 -167 0 -91 238 c-51 130 -95 245 -99 255 -6 16 11 17 260 17
206 0 266 -3 266 -12z m26 -623 c19 -82 17 -207 -5 -265 -57 -149 -205 -254
-376 -267 -231 -18 -451 146 -472 351 -4 34 1 89 12 146 l18 90 406 -2 406 -3
11 -50z"/>
<path d="M1382 908 c-6 -6 -12 -16 -12 -21 0 -24 -68 -98 -126 -136 -66 -43
-76 -63 -43 -84 55 -34 248 150 237 226 -3 25 -37 34 -56 15z"/>
</g>
</svg>
