<?xml version="1.0" standalone="no"?>
<!DOCTYPE svg PUBLIC "-//W3C//DTD SVG 20010904//EN"
 "http://www.w3.org/TR/2001/REC-SVG-20010904/DTD/svg10.dtd">
<svg version="1.0" xmlns="http://www.w3.org/2000/svg"
 width="225.000000pt" height="225.000000pt" viewBox="0 0 225.000000 225.000000"
 preserveAspectRatio="xMidYMid meet">

<g transform="translate(0.000000,225.000000) scale(0.100000,-0.100000)"
fill="#000000" stroke="none">
<path d="M561 2131 c-59 -31 -80 -59 -81 -109 0 -39 46 -92 79 -92 26 0 81
-104 81 -152 0 -18 4 -48 9 -65 24 -82 -27 -118 -98 -69 -20 14 -45 26 -54 26
-10 0 -40 21 -67 46 -44 42 -50 51 -50 88 0 23 -7 52 -16 65 -21 30 -71 51
-106 44 -26 -5 -109 -78 -128 -113 -19 -35 -11 -78 19 -112 23 -26 36 -32 70
-33 35 -1 48 -8 91 -50 28 -27 50 -56 50 -64 0 -8 12 -32 27 -54 19 -28 28
-55 31 -96 4 -58 4 -58 -29 -70 -49 -17 -97 -58 -119 -101 -11 -21 -30 -42
-42 -45 -39 -12 -87 -55 -108 -96 -11 -21 -27 -39 -34 -39 -25 0 -74 -49 -81
-80 -22 -100 112 -480 173 -488 38 -6 35 22 -12 120 -25 51 -54 126 -65 166
l-20 72 1044 0 1043 0 -14 -53 c-34 -133 -114 -284 -209 -400 l-55 -67 -765 0
-764 0 -42 50 c-30 36 -49 50 -63 48 -37 -5 -30 -41 18 -95 34 -38 48 -64 61
-114 9 -35 23 -74 31 -86 l14 -23 745 0 745 0 14 23 c8 12 22 50 31 85 13 51
28 77 76 135 141 167 250 421 253 590 1 54 -2 61 -32 88 -18 16 -39 29 -47 29
-8 0 -24 18 -35 39 -22 43 -58 76 -107 96 -39 16 -39 19 -13 70 45 87 11 204
-70 245 -22 11 -45 20 -53 20 -7 0 -25 17 -38 37 -32 49 -80 76 -138 77 -25 1
-51 4 -56 8 -23 14 -196 49 -214 43 -11 -3 -23 -14 -26 -24 -9 -28 -120 -23
-163 7 -17 13 -45 28 -63 34 -18 6 -40 19 -50 29 -26 26 -123 45 -152 30 -33
-18 -109 18 -138 65 -11 19 -30 39 -41 45 -11 6 -31 36 -45 67 -22 51 -23 60
-12 99 9 34 9 49 -1 73 -27 66 -98 78 -189 31z m126 -46 c3 -9 0 -35 -7 -60
-11 -40 -10 -48 14 -100 30 -67 31 -75 11 -75 -9 0 -25 23 -39 54 -24 54 -56
86 -88 86 -15 0 -38 27 -38 44 0 13 34 36 55 36 12 0 25 7 29 15 7 20 55 19
63 0z m-378 -253 c6 -10 8 -28 5 -39 -7 -27 16 -70 60 -112 28 -27 33 -37 24
-48 -9 -11 -20 -5 -60 34 -39 39 -56 48 -94 53 -71 8 -77 28 -23 83 48 50 73
58 88 29z m496 -65 c12 -20 43 -43 80 -62 79 -39 83 -60 14 -68 -28 -4 -70
-17 -93 -31 -38 -22 -44 -23 -68 -10 -25 13 -27 18 -22 58 4 25 1 59 -5 78
-11 29 -10 35 10 51 32 26 61 21 84 -16z m282 -91 c2 -1 -6 -32 -17 -68 -18
-61 -22 -65 -45 -60 -14 2 -28 8 -30 13 -3 4 2 36 12 69 18 60 19 61 47 56 16
-4 31 -8 33 -10z m133 -78 c30 -24 43 -28 100 -28 70 0 95 -11 138 -62 14 -17
37 -30 60 -33 61 -11 92 -26 118 -61 14 -18 41 -38 60 -44 18 -6 50 -30 69
-53 19 -22 59 -52 87 -66 34 -17 58 -37 69 -58 24 -48 39 -63 78 -79 42 -18
71 -42 71 -61 0 -10 -40 -13 -205 -13 -174 0 -207 -2 -211 -15 -4 -8 -1 -22 6
-30 10 -13 53 -15 256 -15 232 0 243 -1 257 -20 8 -11 12 -32 9 -45 l-4 -25
-1053 0 -1053 0 -4 25 c-3 13 1 34 9 45 14 20 23 20 742 20 633 0 730 2 741
15 7 8 10 22 6 30 -5 13 -89 15 -696 15 -571 0 -690 2 -690 13 0 19 29 43 71
61 39 16 53 30 79 79 17 31 54 59 96 71 17 5 26 -2 47 -33 26 -39 26 -39 6
-57 -23 -21 -22 -67 2 -72 9 -2 30 11 47 28 20 20 40 30 61 30 21 0 44 13 77
41 43 37 51 40 88 35 35 -5 48 -1 85 24 52 36 71 37 121 9 42 -24 70 -20 70
10 0 21 -41 58 -74 67 -12 3 -26 15 -31 27 -13 29 -49 29 -53 0 -2 -12 -15
-26 -32 -33 -16 -7 -35 -18 -41 -26 -7 -8 -30 -14 -56 -14 -50 0 -87 -16 -122
-54 -32 -34 -53 -33 -83 7 -40 52 -48 73 -58 153 -7 58 -16 86 -36 111 l-26
35 19 26 c27 36 44 38 87 8 21 -14 58 -28 84 -31 97 -12 111 -16 143 -40 19
-13 44 -32 57 -41 18 -13 25 -14 37 -4 20 16 19 35 -2 56 -16 15 -16 17 2 30
29 21 75 18 75 -4 0 -27 28 -48 87 -65 72 -20 92 -9 114 66 10 32 20 64 23 72
7 19 30 10 76 -27z m351 -8 c32 -9 36 -13 31 -36 -4 -24 -7 -25 -46 -19 -27 4
-49 16 -63 33 -40 47 -28 50 78 22z m210 -59 c32 -32 39 -83 16 -115 -12 -16
-15 -16 -54 1 -48 22 -95 74 -88 97 3 9 7 23 10 31 3 10 18 15 45 15 33 0 48
-6 71 -29z m129 -97 c42 -25 63 -69 57 -116 -3 -22 -8 -42 -11 -45 -2 -3 -18
4 -35 16 -17 12 -44 27 -61 32 -33 12 -38 30 -15 49 8 7 17 27 21 46 7 39 7
39 44 18z m-50 -1190 c0 -3 -5 -25 -11 -50 l-11 -44 -713 0 -713 0 -11 44 c-6
25 -11 47 -11 50 0 3 331 6 735 6 404 0 735 -3 735 -6z"/>
<path d="M1152 1454 c-15 -10 -22 -24 -20 -37 3 -20 9 -22 63 -22 54 0 60 2
63 22 4 24 -31 53 -63 53 -11 0 -31 -7 -43 -16z"/>
<path d="M1347 1372 c-23 -25 -24 -134 -1 -156 11 -11 38 -17 87 -18 161 -5
167 -2 167 98 0 85 -13 94 -141 94 -80 0 -99 -3 -112 -18z m162 -48 c26 -6 31
-11 31 -35 l0 -29 -69 0 c-75 0 -86 7 -77 46 5 20 12 24 45 24 21 0 53 -3 70
-6z"/>
<path d="M1160 1200 c-37 -37 -21 -56 47 -57 75 -1 97 38 37 66 -36 16 -61 14
-84 -9z"/>
<path d="M1636 1191 c-25 -27 -17 -57 14 -53 14 1 30 2 35 2 6 0 21 -1 35 -2
17 -2 25 3 28 15 6 28 -27 57 -63 57 -19 0 -39 -8 -49 -19z"/>
<path d="M862 1184 c-41 -28 -15 -84 27 -57 11 7 21 7 32 0 22 -14 49 -2 49
22 0 23 -36 51 -65 51 -11 0 -31 -7 -43 -16z"/>
</g>
</svg>
