<?xml version="1.0" standalone="no"?>
<!DOCTYPE svg PUBLIC "-//W3C//DTD SVG 20010904//EN"
 "http://www.w3.org/TR/2001/REC-SVG-20010904/DTD/svg10.dtd">
<svg version="1.0" xmlns="http://www.w3.org/2000/svg"
 width="225.000000pt" height="225.000000pt" viewBox="0 0 225.000000 225.000000"
 preserveAspectRatio="xMidYMid meet">

<g transform="translate(0.000000,225.000000) scale(0.100000,-0.100000)"
fill="#000000" stroke="none">
<path d="M685 1740 c-11 -12 -33 -20 -64 -22 -44 -3 -46 -4 -46 -33 0 -29 2
-30 50 -36 48 -6 49 -6 10 -8 -52 -2 -68 -13 -63 -42 3 -21 10 -25 53 -29 l50
-5 -52 -8 c-50 -7 -53 -9 -53 -37 0 -28 2 -30 39 -30 22 0 42 -4 46 -9 13 -22
-40 -127 -106 -208 -38 -47 -69 -89 -69 -93 0 -5 14 -24 32 -44 44 -50 74 -48
124 7 22 23 48 55 60 71 l20 28 29 -57 c18 -35 52 -78 87 -109 l57 -52 -106
-13 c-283 -33 -500 -104 -574 -188 -23 -26 -29 -43 -29 -78 0 -78 71 -136 235
-190 44 -15 127 -47 185 -72 135 -57 233 -80 398 -94 156 -12 361 1 480 32 42
10 128 41 191 68 64 27 134 55 156 62 82 24 164 68 204 108 36 36 41 46 41 88
0 42 -4 51 -44 88 -72 70 -235 127 -454 160 -59 9 -154 27 -212 40 -58 13
-145 31 -193 40 -149 27 -233 76 -280 163 -27 50 -56 160 -57 214 0 26 1 26
58 21 71 -7 125 14 150 56 l17 30 340 -6 c314 -6 342 -5 358 11 22 23 22 59
-2 80 -17 16 -46 17 -359 10 l-340 -7 -15 30 c-22 41 -60 55 -146 54 -48 -1
-77 3 -82 10 -4 7 -30 14 -57 15 -39 3 -53 -1 -67 -16z m48 -177 c10 -242 42
-353 129 -442 47 -48 102 -76 218 -110 110 -34 187 -76 249 -140 56 -56 103
-131 115 -183 6 -25 4 -28 -18 -28 -21 0 -27 8 -40 53 -8 29 -33 78 -55 108
-65 91 -124 128 -286 178 -55 16 -121 43 -146 59 -83 53 -143 147 -174 274
-17 66 -33 354 -21 383 15 39 23 -5 29 -152z m61 5 c10 -241 41 -345 124 -420
52 -47 61 -52 200 -99 64 -23 142 -56 174 -75 96 -58 202 -190 222 -276 5 -23
3 -28 -13 -28 -14 0 -23 11 -32 38 -20 63 -45 106 -96 162 -67 75 -134 114
-275 161 -68 23 -136 49 -153 59 -77 47 -136 141 -160 257 -17 79 -31 317 -21
357 14 55 23 12 30 -136z m201 107 c14 -13 25 -32 25 -41 0 -16 27 -17 358
-13 352 4 357 4 357 -16 0 -20 -6 -20 -357 -17 -349 3 -358 2 -358 -17 0 -10
-14 -31 -31 -45 -31 -27 -66 -32 -128 -20 -34 7 -43 34 -10 34 30 0 22 44 -8
48 -32 5 -29 32 3 32 21 0 25 4 22 23 -2 14 -11 23 -25 25 -13 2 -23 10 -23
18 0 11 17 14 75 14 67 0 79 -3 100 -25z m-337 8 c-10 -2 -26 -2 -35 0 -10 3
-2 5 17 5 19 0 27 -2 18 -5z m5 -80 c-7 -2 -21 -2 -30 0 -10 3 -4 5 12 5 17 0
24 -2 18 -5z m0 -80 c-7 -2 -21 -2 -30 0 -10 3 -4 5 12 5 17 0 24 -2 18 -5z
m-7 -201 c-32 -63 -118 -158 -134 -148 -9 5 5 27 42 68 30 33 67 84 83 114 20
39 29 49 31 35 2 -11 -8 -42 -22 -69z m16 -84 c-40 -58 -97 -111 -113 -106 -8
3 9 28 43 65 31 34 65 76 75 95 16 30 18 31 21 11 2 -13 -9 -40 -26 -65z m153
-266 c-6 -4 -36 -25 -68 -46 -64 -43 -115 -97 -154 -164 -17 -29 -29 -40 -36
-33 -28 28 107 176 205 225 53 26 70 32 53 18z m90 -16 c-76 -36 -172 -112
-213 -171 -31 -45 -66 -75 -88 -75 -12 0 42 78 85 124 71 75 187 143 246 145
11 1 -2 -10 -30 -23z m481 -12 c66 -44 125 -109 159 -177 28 -57 32 -87 11
-87 -7 0 -23 26 -35 60 -26 70 -82 145 -152 200 -63 50 -55 52 17 4z m-676 23
c0 -2 -21 -18 -46 -37 -40 -29 -123 -126 -137 -162 -4 -9 -12 -5 -26 12 -23
29 -36 22 -27 -15 13 -50 123 -103 274 -131 110 -21 462 -29 603 -15 226 23
380 78 403 143 14 40 -1 47 -28 13 l-23 -29 -12 37 c-17 49 -80 129 -126 157
-20 12 -34 24 -31 27 8 8 178 -28 271 -57 143 -46 225 -107 225 -166 0 -69
-135 -147 -335 -194 -174 -41 -318 -54 -580 -54 -262 0 -406 13 -580 54 -200
47 -335 125 -335 194 0 79 143 157 378 206 83 18 132 24 132 17z m330 -9 c-84
-36 -137 -67 -188 -110 -55 -46 -119 -84 -128 -75 -8 7 106 106 154 134 53 31
137 63 167 62 17 0 16 -2 -5 -11z m58 -34 c-19 -6 -66 -28 -104 -47 -70 -36
-114 -52 -114 -43 0 11 127 80 179 96 61 20 97 14 39 -6z m436 -51 c42 -42 86
-121 86 -153 0 -38 -17 -20 -39 40 -16 43 -40 80 -84 127 -65 70 -34 58 37
-14z m117 -75 c21 -40 25 -78 9 -78 -5 0 -10 7 -10 15 0 24 -46 110 -82 152
-29 35 -28 34 16 -7 26 -25 56 -62 67 -82z m-478 105 c-7 -2 -19 -2 -25 0 -7
3 -2 5 12 5 14 0 19 -2 13 -5z m66 -37 c-3 -3 -48 -14 -101 -26 -92 -20 -294
-84 -407 -129 -91 -37 -91 -18 -1 23 167 76 363 133 464 135 27 1 47 -1 45 -3z
m45 -44 c3 -5 -39 -19 -92 -31 -53 -13 -175 -45 -270 -72 -95 -27 -178 -49
-185 -48 -37 2 208 89 368 130 112 29 170 35 179 21z m34 -54 c-3 -8 -91 -32
-214 -59 -275 -60 -280 -61 -269 -50 8 7 253 76 390 109 59 15 97 14 93 0z
m25 -52 c4 -11 -7 -18 -46 -25 -68 -14 -256 -41 -282 -40 -14 0 250 65 316 78
4 0 9 -5 12 -13z m17 -55 c0 -9 -76 -22 -119 -20 -14 1 1 7 34 14 76 16 85 17
85 6z m-490 -191 c194 -17 367 -13 650 15 l55 5 -55 -20 c-183 -68 -611 -70
-802 -4 -59 20 -61 28 -5 20 23 -3 94 -10 157 -16z"/>
</g>
</svg>
