<?xml version="1.0" standalone="no"?>
<!DOCTYPE svg PUBLIC "-//W3C//DTD SVG 20010904//EN"
 "http://www.w3.org/TR/2001/REC-SVG-20010904/DTD/svg10.dtd">
<svg version="1.0" xmlns="http://www.w3.org/2000/svg"
 width="225.000000pt" height="225.000000pt" viewBox="0 0 225.000000 225.000000"
 preserveAspectRatio="xMidYMid meet">

<g transform="translate(0.000000,225.000000) scale(0.100000,-0.100000)"
fill="#000000" stroke="none">
<path d="M1460 2063 c-19 -3 -44 -12 -54 -21 -23 -20 -66 -109 -66 -137 0 -11
-11 5 -23 35 l-22 55 -68 3 c-37 2 -67 -1 -67 -5 0 -5 -12 -21 -27 -37 -23
-25 -25 -32 -15 -60 27 -79 27 -77 -13 -74 -53 3 -75 -26 -75 -99 0 -55 0 -55
-22 -40 -34 22 -25 79 30 190 2 4 -22 19 -54 33 -45 20 -68 24 -100 19 -37 -5
-44 -11 -77 -66 -19 -34 -39 -79 -42 -100 -7 -39 -18 -54 -34 -45 -7 5 23 162
47 242 l10 31 -81 27 c-80 26 -82 26 -107 8 -14 -10 -32 -32 -40 -48 -18 -36
-25 -167 -12 -214 8 -29 9 -23 5 31 -7 77 13 202 31 195 6 -2 37 -10 69 -17
31 -7 57 -16 57 -19 0 -3 -9 -26 -21 -49 -11 -24 -23 -68 -26 -99 -5 -47 -10
-57 -34 -71 -29 -16 -54 -65 -42 -84 3 -6 1 -7 -6 -3 -7 5 -9 17 -5 29 3 12 3
19 -1 15 -4 -4 -24 19 -45 50 -21 31 -62 81 -92 110 l-55 53 -49 -37 c-27 -20
-52 -42 -56 -48 -18 -26 1 -116 24 -116 19 0 91 -77 114 -122 13 -26 22 -48
19 -48 -3 0 -24 12 -46 26 -38 24 -42 24 -59 9 -29 -26 -82 -133 -75 -153 3
-9 14 -28 24 -41 l19 -25 30 67 c17 37 33 67 37 67 3 0 32 -14 65 -30 61 -31
200 -152 200 -175 0 -7 -18 -15 -42 -18 -36 -5 -47 -1 -79 23 -40 33 -107 63
-156 73 -48 9 -40 -8 10 -22 23 -7 72 -29 108 -48 50 -26 66 -39 62 -52 -7
-29 137 -552 234 -848 46 -139 61 -173 77 -177 12 -3 74 -11 138 -18 92 -9
145 -9 237 0 142 14 283 45 329 73 53 31 180 150 191 178 9 25 16 75 47 341 8
69 16 141 19 160 7 48 33 335 46 500 9 116 16 148 46 225 19 50 49 116 66 148
16 31 28 58 26 60 -2 1 -27 21 -56 45 -41 33 -60 42 -90 42 -33 0 -43 -6 -77
-48 -69 -84 -105 -187 -107 -306 l-1 -51 -13 35 c-8 21 -14 84 -15 160 -3 137
-17 125 -19 -16 -1 -88 18 -168 48 -203 19 -21 19 -21 22 92 4 107 6 117 41
188 20 41 48 85 61 97 l25 23 56 -37 56 -38 -24 -26 c-53 -58 -96 -168 -96
-246 0 -28 -7 -38 -46 -64 -26 -17 -53 -29 -60 -26 -8 3 -11 0 -8 -8 3 -7 -2
-16 -11 -20 -13 -4 -24 11 -50 68 -38 82 -59 192 -53 273 l5 52 -71 3 -71 3
33 18 c27 15 39 16 64 8 39 -14 98 -14 98 -1 0 6 -13 10 -30 10 -24 0 -28 3
-23 18 3 9 15 27 26 39 11 13 19 24 16 26 -23 19 -119 87 -121 85 -2 0 -19 -3
-38 -5z m98 -52 l42 -33 -20 -25 c-11 -14 -20 -32 -20 -39 0 -15 -10 -17 -34
-8 -13 5 -13 10 -4 27 6 12 20 28 31 37 19 16 18 17 -37 46 -42 22 -51 30 -38
35 19 7 18 7 80 -40z m-69 1 l49 -27 -19 -24 c-10 -13 -19 -29 -19 -36 0 -7
-14 -18 -30 -25 -17 -7 -37 -22 -45 -34 -31 -43 -9 -230 40 -348 30 -71 30
-67 13 -130 -12 -47 -14 -48 -50 -48 -38 0 -38 0 -39 -42 l-1 -43 -9 35 c-22
83 -4 279 31 340 7 11 -1 20 -33 36 -26 13 -40 26 -38 35 3 8 5 57 6 109 2 57
8 109 17 130 14 32 64 100 74 100 3 0 27 -12 53 -28z m-721 -38 c2 -1 -8 -34
-22 -74 -14 -39 -29 -95 -32 -125 -6 -50 -8 -53 -26 -44 -16 9 -18 17 -12 57
4 26 17 75 30 109 27 74 25 77 -66 89 -53 7 -53 7 -32 25 21 17 25 16 90 -9
37 -14 68 -27 70 -28z m547 -84 c16 -77 20 -190 7 -190 -16 0 -31 45 -35 110
-2 36 -10 84 -17 108 l-13 43 -56 -7 c-50 -6 -55 -5 -43 9 17 20 123 28 134
11 5 -7 15 -44 23 -84z m610 10 l48 -48 -20 -29 c-33 -46 -81 -148 -94 -197
-6 -25 -17 -51 -25 -57 -12 -9 -14 -5 -14 23 0 53 26 127 70 200 22 37 40 69
40 71 0 2 -25 21 -55 41 -30 20 -55 38 -55 40 0 1 13 3 29 4 21 0 40 -11 76
-48z m-668 -4 c7 -23 15 -73 19 -110 l7 -66 -31 -6 c-16 -3 -35 -16 -41 -28
-9 -17 -10 -5 -8 57 l2 77 -26 0 c-23 0 -28 6 -38 44 -15 63 -15 64 22 69 82
10 82 10 94 -37z m-238 -23 c2 -1 -8 -26 -23 -54 -14 -29 -26 -68 -26 -86 0
-26 -4 -33 -20 -33 -17 0 -19 5 -14 28 3 15 16 49 29 77 13 27 23 50 22 51 -9
7 -120 44 -123 41 -3 -3 60 -34 103 -52 1 -1 -9 -23 -22 -50 -14 -26 -25 -58
-25 -70 0 -12 -9 -39 -19 -61 -42 -87 -64 -273 -48 -414 l6 -55 -15 45 c-27
84 -56 245 -61 348 -3 56 -10 105 -14 108 -11 6 32 120 65 172 20 32 32 41 58
44 26 3 91 -18 127 -39z m-570 -56 c57 -72 141 -210 141 -232 0 -23 -17 -17
-24 8 -14 58 -152 237 -183 237 -7 0 -34 -21 -58 -46 l-45 -46 0 35 c0 30 7
40 48 70 26 20 52 36 59 36 6 1 34 -27 62 -62z m1082 23 l29 0 -2 -82 c-2 -96
18 -176 64 -257 l30 -54 -48 -48 c-48 -48 -84 -63 -84 -34 0 18 12 19 29 3 7
-7 -1 12 -17 42 -46 82 -81 197 -94 308 -14 120 -9 137 33 128 18 -3 44 -6 60
-6z m-1066 -115 c49 -69 125 -216 125 -243 0 -10 6 -41 14 -70 7 -29 10 -52 7
-52 -3 1 -19 18 -35 38 -17 20 -49 53 -72 72 -29 23 -47 48 -55 75 -16 55 -56
108 -111 146 -54 36 -53 38 11 96 34 29 37 30 55 15 10 -10 38 -44 61 -77z
m724 22 c-1 -34 0 -79 1 -101 1 -21 -3 -43 -9 -49 -12 -12 -13 -8 -15 108 l-1
70 -59 3 c-54 3 -57 4 -43 20 12 13 28 16 71 14 l56 -4 -1 -61z m-39 -49 c0
-35 5 -79 10 -99 6 -23 7 -73 1 -138 -6 -76 -5 -112 4 -139 7 -20 16 -58 20
-83 6 -39 4 -47 -11 -53 -10 -4 -21 -1 -26 6 -5 8 -8 9 -8 2 0 -7 -21 -15 -47
-19 -27 -3 -58 -9 -70 -12 -20 -4 -23 -1 -23 23 0 16 3 40 7 54 6 23 8 21 19
-20 7 -25 12 -35 13 -24 1 12 -6 41 -14 64 -12 35 -13 54 -4 106 6 35 15 61
20 58 13 -8 58 -98 80 -159 10 -27 18 -42 18 -33 1 27 -44 141 -74 186 -18 28
-25 47 -20 62 9 27 24 16 67 -51 17 -27 33 -47 35 -45 7 7 -17 46 -55 88 -35
39 -36 40 -23 81 24 82 24 82 -3 95 -23 10 -26 18 -26 62 l0 50 55 0 55 0 0
-62z m-440 8 l52 -24 3 -114 c4 -125 21 -217 59 -324 31 -87 31 -86 4 -82 -20
3 -26 16 -45 87 -12 46 -32 156 -44 245 -13 88 -27 167 -32 173 -5 7 -25 15
-46 19 -51 9 -57 15 -30 30 13 7 25 13 26 14 0 0 24 -11 53 -24z m617 -26 c18
-16 43 -30 53 -30 24 0 24 5 -1 -66 -27 -77 -34 -219 -14 -294 8 -30 15 -58
15 -61 0 -13 -55 -17 -62 -6 -4 7 -8 53 -8 102 1 82 5 130 25 266 7 46 7 46
-26 58 -18 6 -45 19 -59 28 l-25 17 25 7 c39 11 40 11 77 -21z m-627 -61 c0
-77 32 -266 60 -353 16 -50 28 -92 26 -94 -11 -11 -78 31 -88 55 -7 15 -18 34
-25 41 -37 39 -80 271 -68 368 l6 52 45 -15 c42 -14 44 -17 44 -54z m306 50
c10 -12 31 -27 46 -35 l27 -14 -26 -57 c-42 -97 -63 -197 -63 -305 0 -90 -2
-98 -19 -98 -15 0 -21 10 -26 41 -13 77 9 193 62 329 18 47 33 86 33 87 0 2
-22 14 -49 28 -61 31 -72 45 -33 45 17 0 37 -9 48 -21z m262 -14 c20 -14 43
-25 50 -25 10 0 12 -7 8 -22 -30 -103 -38 -170 -33 -280 l6 -118 -27 -6 c-15
-3 -33 -7 -39 -9 -44 -14 -67 309 -30 428 10 31 20 57 23 57 3 0 22 -11 42
-25z m-323 5 c4 -6 24 -19 45 -30 l39 -20 -34 -68 c-53 -107 -69 -175 -70
-284 0 -94 -1 -98 -22 -98 -18 0 -23 8 -30 48 -29 178 26 526 72 452z m-552
-122 c48 -33 137 -112 137 -121 0 -4 -12 2 -28 13 -37 28 -145 71 -154 62 -4
-4 -18 -34 -31 -65 -23 -57 -24 -57 -35 -32 -7 14 -12 32 -12 39 0 17 72 126
83 126 5 0 23 -10 40 -22z m1433 -156 c-17 -159 -58 -549 -82 -784 l-15 -146
-87 -86 c-48 -47 -89 -81 -90 -75 -5 14 17 886 25 986 l6 82 65 53 c92 74 186
137 191 126 1 -5 -4 -75 -13 -156z m-312 -7 c-3 -14 -12 -25 -20 -25 -17 0
-17 7 -3 50 10 26 14 29 21 17 5 -9 6 -28 2 -42z m42 -82 c-10 -62 -26 -551
-26 -795 l0 -226 -30 -10 c-16 -6 -87 -21 -157 -33 -109 -18 -155 -21 -311
-17 -100 3 -187 9 -192 14 -5 5 -70 221 -144 479 -74 259 -140 485 -145 503
l-10 32 49 0 c27 0 55 3 64 6 11 4 17 -2 21 -23 19 -91 55 -106 219 -93 104 9
454 62 499 76 13 4 17 17 17 59 l0 54 58 4 c31 2 65 4 75 5 16 2 18 -3 13 -35z"/>
</g>
</svg>
