<?xml version="1.0" standalone="no"?>
<!DOCTYPE svg PUBLIC "-//W3C//DTD SVG 20010904//EN"
 "http://www.w3.org/TR/2001/REC-SVG-20010904/DTD/svg10.dtd">
<svg version="1.0" xmlns="http://www.w3.org/2000/svg"
 width="225.000000pt" height="225.000000pt" viewBox="0 0 225.000000 225.000000"
 preserveAspectRatio="xMidYMid meet">

<g transform="translate(0.000000,225.000000) scale(0.100000,-0.100000)"
fill="#000000" stroke="none">
<path d="M1096 2234 c-14 -13 -16 -53 -16 -283 l0 -268 -41 -7 c-157 -25 -305
-181 -327 -346 l-9 -60 189 0 188 0 0 -25 0 -25 -127 0 c-104 0 -136 -4 -170
-19 -100 -46 -102 -195 -3 -246 22 -11 64 -15 165 -15 l135 0 0 -55 c0 -54 0
-54 -37 -64 -55 -16 -160 -13 -228 4 -69 18 -100 14 -108 -15 -15 -58 96 -95
265 -88 l108 4 0 -33 0 -33 -187 -2 -188 -3 -3 -232 -2 -233 190 0 190 0 0
-79 c0 -81 12 -111 45 -111 33 0 45 30 45 111 l0 79 190 0 190 0 -2 233 -3
232 -187 3 -188 2 0 54 c0 52 1 54 31 60 59 12 193 6 252 -11 59 -16 60 -16
78 5 38 48 -7 81 -138 102 -61 10 -140 8 -200 -7 -21 -5 -23 -2 -23 36 l0 41
135 0 c101 0 143 4 165 15 99 51 97 200 -3 246 -34 15 -66 19 -169 19 l-128 0
0 25 0 25 188 0 189 0 -9 60 c-22 165 -170 321 -327 346 l-41 7 0 268 c0 230
-2 270 -16 283 -8 9 -22 16 -29 16 -7 0 -21 -7 -29 -16z m171 -672 c62 -32
111 -78 144 -136 16 -28 29 -54 29 -58 0 -5 -106 -8 -236 -8 -178 0 -235 3
-232 12 9 26 76 68 121 77 54 10 77 25 77 52 0 33 -39 49 -92 39 -90 -17 -162
-71 -203 -150 -11 -21 -23 -30 -40 -30 -30 0 -30 1 -5 50 40 78 105 136 189
167 55 21 195 12 248 -15z m151 -438 c26 -7 40 -49 25 -73 -9 -14 -47 -16
-318 -16 -271 0 -309 2 -318 16 -14 22 -1 67 21 72 26 7 564 8 590 1z m32
-704 l0 -140 -325 0 -325 0 0 140 0 140 325 0 325 0 0 -140z"/>
<path d="M902 498 c-33 -33 16 -91 57 -68 39 20 21 80 -24 80 -12 0 -26 -5
-33 -12z"/>
<path d="M1282 498 c-19 -19 -14 -56 9 -68 16 -9 26 -8 45 5 39 26 26 75 -21
75 -12 0 -26 -5 -33 -12z"/>
<path d="M1092 408 c-15 -15 -15 -51 0 -66 15 -15 51 -15 66 0 28 28 7 78 -33
78 -12 0 -26 -5 -33 -12z"/>
</g>
</svg>
