<?xml version="1.0" standalone="no"?>
<!DOCTYPE svg PUBLIC "-//W3C//DTD SVG 20010904//EN"
 "http://www.w3.org/TR/2001/REC-SVG-20010904/DTD/svg10.dtd">
<svg version="1.0" xmlns="http://www.w3.org/2000/svg"
 width="225.000000pt" height="225.000000pt" viewBox="0 0 225.000000 225.000000"
 preserveAspectRatio="xMidYMid meet">

<g transform="translate(0.000000,225.000000) scale(0.100000,-0.100000)"
fill="#000000" stroke="none">
<path d="M979 2075 c-187 -30 -364 -114 -490 -232 l-49 -46 0 121 c0 96 -3
124 -16 136 -20 20 -38 20 -58 0 -13 -13 -16 -43 -16 -175 l0 -159 -45 0 -45
0 -2 166 c-3 146 -5 168 -21 178 -12 8 -22 8 -35 0 -15 -10 -17 -32 -20 -178
l-2 -166 -45 0 -45 0 0 158 c0 144 -2 161 -19 176 -25 23 -59 13 -67 -18 -3
-13 -4 -113 -2 -222 3 -183 5 -202 25 -241 24 -45 70 -85 117 -103 28 -10 28
-11 22 -73 -10 -95 -54 -650 -67 -847 -11 -160 -11 -178 5 -208 48 -94 183
-94 232 0 14 26 16 49 10 128 l-6 95 42 -50 c69 -81 128 -133 216 -192 279
-185 626 -210 931 -67 123 58 200 114 298 218 l81 85 -5 -58 c-8 -82 3 -125
40 -168 88 -100 232 -80 288 42 18 38 19 84 19 852 0 725 -2 813 -16 827 -26
26 -46 19 -99 -38 -55 -57 -127 -192 -165 -308 -13 -38 -25 -68 -29 -68 -3 0
-18 19 -33 43 -43 67 -163 182 -254 243 -195 130 -450 186 -675 149z m384
-109 c164 -48 288 -125 403 -249 38 -41 85 -101 104 -133 l35 -58 0 -181 c0
-177 0 -181 29 -242 16 -35 35 -68 42 -74 27 -23 -9 -175 -73 -303 -48 -96
-96 -158 -192 -248 -65 -62 -103 -87 -193 -131 -131 -65 -206 -85 -339 -94
-312 -20 -618 133 -785 393 -68 105 -71 116 -94 419 -11 154 -24 306 -27 337
-6 56 -5 58 23 68 71 27 122 90 139 170 13 65 165 201 300 267 139 70 254 94
415 89 97 -3 145 -10 213 -30z m797 -502 l0 -446 -27 7 c-93 23 -153 137 -153
289 0 72 27 225 57 321 22 72 111 275 120 275 1 0 3 -201 3 -446z m-1820 155
c0 -19 -59 -67 -90 -74 -17 -4 -43 -4 -60 0 -31 7 -90 55 -90 74 0 7 39 11
120 11 81 0 120 -4 120 -11z m-96 -936 c10 -148 17 -279 15 -293 -3 -21 -9
-25 -38 -25 -25 0 -35 5 -40 20 -8 23 30 565 39 565 3 0 14 -120 24 -267z
m1879 256 l37 -10 0 -260 0 -260 -25 -24 c-36 -37 -86 -37 -124 0 -20 19 -23
32 -23 82 1 46 38 264 78 461 5 25 6 25 57 11z"/>
<path d="M911 1808 c-36 -18 -56 -40 -116 -133 -72 -111 -73 -113 -187 -187
-117 -77 -139 -103 -154 -175 -8 -38 10 -103 38 -138 12 -15 65 -56 119 -90
102 -67 118 -83 202 -210 28 -43 64 -87 78 -98 56 -41 151 -41 208 0 14 11 50
55 78 98 84 127 100 144 203 211 54 34 107 75 119 90 28 35 44 98 36 137 -15
71 -45 104 -157 176 -107 70 -108 71 -182 184 -63 96 -81 118 -118 136 -56 27
-111 27 -167 -1z m137 -84 c13 -8 51 -59 86 -112 73 -113 82 -121 198 -195 94
-61 118 -87 118 -130 0 -46 -16 -64 -118 -131 -115 -75 -136 -97 -216 -218
-52 -79 -66 -94 -96 -101 -59 -15 -84 3 -154 110 -75 115 -102 142 -218 217
-92 59 -108 77 -108 123 0 43 24 69 118 130 116 74 125 82 198 195 35 53 73
104 86 112 29 20 77 20 106 0z"/>
<path d="M937 1455 c-93 -33 -141 -131 -112 -226 33 -105 163 -152 262 -94
132 78 104 283 -44 324 -48 14 -59 13 -106 -4z m116 -95 c32 -25 43 -72 27
-111 -13 -30 -55 -59 -85 -59 -30 0 -72 29 -85 59 -26 63 19 131 85 131 18 0
44 -9 58 -20z"/>
<path d="M1466 1794 c-21 -20 -20 -30 3 -53 25 -25 59 -17 67 15 12 46 -37 72
-70 38z"/>
<path d="M1570 1711 c-5 -11 -10 -22 -10 -25 0 -4 32 -40 70 -82 39 -41 77
-88 85 -104 28 -54 79 -62 91 -14 7 29 -45 111 -122 189 -58 59 -95 71 -114
36z"/>
<path d="M1636 1191 c-33 -22 -236 -363 -236 -397 0 -17 -15 -24 -107 -48 -64
-16 -121 -38 -140 -52 -89 -68 -51 -214 62 -238 21 -4 90 10 220 44 105 28
202 55 216 61 80 32 113 131 66 200 l-25 36 71 122 c76 132 85 172 52 228 -36
62 -121 82 -179 44z m111 -98 c6 -14 -45 -123 -58 -123 -7 0 -49 75 -49 88 0
5 13 24 30 42 25 27 32 30 50 20 12 -6 24 -18 27 -27z m-131 -172 c25 -39 25
-41 9 -68 -14 -23 -28 -31 -71 -39 -30 -5 -54 -8 -54 -6 0 8 81 152 86 152 2
0 15 -18 30 -39z m15 -191 c22 -12 26 -62 7 -78 -7 -5 -32 -16 -55 -22 -41
-13 -44 -12 -92 21 -28 19 -51 37 -51 40 0 6 133 46 158 48 7 1 22 -4 33 -9z
m-259 -101 c26 -17 48 -34 48 -38 0 -11 -177 -53 -199 -46 -23 7 -35 36 -26
64 6 19 70 49 109 50 11 1 41 -13 68 -30z"/>
<path d="M570 625 c-21 -25 -3 -58 57 -106 65 -52 162 -109 185 -109 23 0 41
27 34 52 -3 15 -27 35 -63 55 -32 17 -82 52 -111 77 -56 48 -81 56 -102 31z"/>
<path d="M900 435 c-7 -9 -10 -25 -6 -40 6 -22 11 -26 39 -23 27 3 33 8 35 32
5 43 -41 64 -68 31z"/>
</g>
</svg>
